<?xml version="1.0" encoding="UTF-8" standalone="no"?>
<!-- Created with Inkscape (http://www.inkscape.org/) -->

<svg
   width="33.866665mm"
   height="33.866665mm"
   viewBox="0 0 33.866665 33.866665"
   version="1.1"
   id="svg1"
   inkscape:version="1.4 (86a8ad7, 2024-10-11)"
   sodipodi:docname="main-icon.svg"
   xmlns:inkscape="http://www.inkscape.org/namespaces/inkscape"
   xmlns:sodipodi="http://sodipodi.sourceforge.net/DTD/sodipodi-0.dtd"
   xmlns="http://www.w3.org/2000/svg"
   xmlns:svg="http://www.w3.org/2000/svg">
  <sodipodi:namedview
     id="namedview1"
     pagecolor="#ffffff"
     bordercolor="#000000"
     borderopacity="0.25"
     inkscape:showpageshadow="2"
     inkscape:pageopacity="0.0"
     inkscape:pagecheckerboard="0"
     inkscape:deskcolor="#d1d1d1"
     inkscape:document-units="mm"
     inkscape:zoom="2.0031716"
     inkscape:cx="-35.693397"
     inkscape:cy="103.08652"
     inkscape:window-width="1920"
     inkscape:window-height="991"
     inkscape:window-x="-9"
     inkscape:window-y="-9"
     inkscape:window-maximized="1"
     inkscape:current-layer="layer1" />
  <defs
     id="defs1" />
  <g
     inkscape:label="Layer 1"
     inkscape:groupmode="layer"
     id="layer1"
     transform="translate(-78.717832,-131.56644)">
    <g
       id="g6"
       transform="translate(-9.3488336,-2.2459093e-4)">
      <rect
         style="fill:#f2f2f2;stroke-width:2.35861;stroke-linejoin:round"
         id="rect1"
         width="33.866665"
         height="33.866665"
         x="88.066666"
         y="131.56667"
         ry="5.5671234" />
      <g
         id="g5"
         transform="matrix(0.81122554,0,0,0.81122554,69.640991,134.3565)">
        <path
           id="path2"
           style="fill:#1a1a1a;stroke-width:3.79862;stroke-linejoin:round"
           d="m 32.756251,10.962736 a 6.4720283,6.4720283 0 0 0 -6.471956,6.471956 6.4720283,6.4720283 0 0 0 6.471956,6.471957 h 21.661727 a 6.4720283,6.4720283 0 0 0 6.471957,-6.471957 6.4720283,6.4720283 0 0 0 -6.471957,-6.471956 z" />
        <g
           id="g3"
           transform="translate(-0.39624663,0.26416442)">
          <circle
             style="fill:#e6e6e6;stroke-width:3.79862;stroke-linejoin:round"
             id="circle3"
             cx="33.152569"
             cy="17.170528"
             r="6.4720283" />
          <path
             sodipodi:type="star"
             style="fill:#ffcc00;stroke-width:3.79862;stroke-linejoin:round"
             id="path3"
             inkscape:flatsided="false"
             sodipodi:sides="12"
             sodipodi:cx="16.774441"
             sodipodi:cy="41.605896"
             sodipodi:r1="4.6529698"
             sodipodi:r2="4.0295901"
             sodipodi:arg1="1.0471976"
             sodipodi:arg2="1.3089969"
             inkscape:rounded="0"
             inkscape:randomized="0"
             d="m 19.100925,45.635486 -1.283549,-0.137305 -1.042935,0.760685 -1.042935,-0.760685 -1.28355,0.137305 -0.522866,-1.180239 -1.180239,-0.522866 0.137305,-1.28355 -0.760685,-1.042935 0.760685,-1.042935 -0.137305,-1.28355 1.180239,-0.522865 0.522866,-1.18024 1.28355,0.137305 1.042935,-0.760685 1.042934,0.760685 1.283551,-0.137305 0.522865,1.180239 1.18024,0.522866 -0.137305,1.28355 0.760685,1.042935 -0.760685,1.042935 0.137305,1.28355 -1.18024,0.522865 z"
             transform="translate(16.37813,-24.435367)" />
        </g>
        <circle
           style="fill:#1a1a1a;stroke-width:3.79862;stroke-linejoin:round"
           id="circle4"
           cx="54.417976"
           cy="17.434765"
           r="6.4720283" />
        <path
           id="path4"
           style="fill:#ffcc00;stroke-width:3.79862;stroke-linejoin:round"
           d="m 52.932283,13.670399 a 3.764343,3.764343 0 0 0 -0.77256,0.0899 3.764343,3.764343 0 0 1 2.95176,3.67471 3.764343,3.764343 0 0 1 -2.97191,3.670057 3.764343,3.764343 0 0 0 0.79271,0.0941 3.764343,3.764343 0 0 0 3.76411,-3.764107 3.764343,3.764343 0 0 0 -3.76411,-3.76463 z" />
      </g>
    </g>
  </g>
</svg>
